# Blender v2.82 (sub 7) OBJ File: ''
# www.blender.org
mtllib field.mtl
o Board
v -71.648293 4.833217 77.648293
v -71.648293 0.165783 77.648293
v 78.147293 0.165783 77.648293
v 78.147293 4.833217 77.648293
v -71.648293 0.165783 -72.147293
v -71.648293 4.833217 -72.147293
v 78.147293 4.833217 -72.147293
v 78.147293 0.165783 -72.147293
v 47.812244 2.963817 -70.282562
v 47.812244 4.833217 -70.282562
v 47.812244 2.963817 -41.812244
v 47.812244 4.833217 -41.812244
v -41.312313 2.963817 -70.283493
v -41.312313 2.963817 -41.813179
v -41.312313 4.833217 -41.813179
v -41.312313 4.833217 -70.283493
v -11.913358 2.963817 -70.283493
v -11.913358 2.963817 -41.813179
v -11.913358 4.833217 -41.813179
v -11.913358 4.833217 -70.283493
v 17.485592 2.963817 -70.283493
v 17.485592 2.963817 -41.813179
v 17.485592 4.833217 -41.813179
v 17.485592 4.833217 -70.283493
v 46.884544 2.963817 -70.283493
v 46.884544 2.963817 -41.813179
v 46.884544 4.833217 -41.813179
v 46.884544 4.833217 -70.283493
v 18.413292 2.963817 -41.813179
v 18.413292 4.833217 -41.813179
v -10.985659 2.963817 -41.813179
v -10.985659 4.833217 -41.813179
v -40.384605 2.963817 -41.813179
v -40.384605 4.833217 -41.813179
v -69.783562 2.963817 -41.813179
v -69.783562 4.833217 -41.813179
v 76.283493 4.833217 -70.282562
v 76.283493 2.963817 -70.282562
v 76.283493 2.963817 -41.812244
v 76.283493 4.833217 -41.812244
v 18.413292 4.833217 -70.283493
v 18.413292 2.963817 -70.283493
v -40.384605 4.833217 -40.884544
v -11.913358 4.833217 -40.884544
v -41.312313 4.833217 -40.886414
v -69.783562 4.833217 -40.886414
v -10.985659 4.833217 -70.283493
v -10.985659 2.963817 -70.283493
v -40.384605 4.833217 -70.283493
v -40.384605 2.963817 -70.283493
v -69.783562 4.833217 16.983791
v -69.783562 4.833217 -70.283493
v -69.783562 2.963817 -70.283493
v 47.812244 4.833217 -40.883606
v 76.283493 4.833217 -40.883606
v -11.913358 4.833217 -12.414227
v -10.985659 4.833217 -40.882671
v 46.884544 4.833217 -40.880806
v -41.312313 4.833217 -12.416092
v -40.384605 4.833217 -12.414227
v -69.783562 4.833217 -12.416092
v -69.783562 4.833217 -11.486525
v 47.812244 4.833217 -12.413292
v -10.985659 4.833217 -12.412358
v -41.312313 4.833217 -11.486525
v 17.485592 4.833217 -40.882671
v 17.485592 4.833217 -12.412358
v 18.413292 4.833217 -40.880806
v 18.413292 4.833217 -12.410493
v 76.283493 4.833217 -12.413292
v -41.312313 4.833217 16.983791
v -40.384605 4.833217 -11.484658
v 46.884544 4.833217 -12.410493
v 18.413292 4.833217 -11.484658
v 46.884544 4.833217 -11.484658
v 47.812244 4.833217 -11.485592
v 76.283493 4.833217 -11.485592
v 46.884544 4.833217 16.985659
v 47.812244 4.833217 16.984726
v 76.283493 4.833217 16.984726
v -10.985659 4.833217 -11.484658
v -11.913358 4.833217 -11.484658
v 17.485592 4.833217 -11.484658
v -10.985659 4.833217 16.985659
v -11.913358 4.833217 16.985659
v -10.985659 4.833217 17.913359
v -11.913358 4.833217 17.914291
v -40.384605 4.833217 17.914291
v -41.312313 4.833217 17.913359
v -41.312313 4.833217 46.383671
v -11.913358 4.833217 46.384605
v -10.985659 4.833217 46.383671
v 47.812244 4.833217 46.382740
v 47.812244 4.833217 17.912426
v 46.884544 4.833217 46.381805
v 17.485592 4.833217 46.383671
v 18.413292 4.833217 47.313244
v 18.413292 4.833217 46.381805
v 17.485592 4.833217 17.913359
v 46.884544 4.833217 47.313244
v -40.384605 4.833217 16.985659
v 18.413292 4.833217 17.911493
v 17.485592 4.833217 16.985659
v 18.413292 4.833217 16.985659
v 46.884544 4.833217 17.911493
v 76.283493 4.833217 17.912426
v 76.283493 4.833217 46.382740
v -69.783562 4.833217 17.913359
v -69.783562 4.833217 75.783562
v -69.783562 4.833217 47.313244
v -41.312313 4.833217 47.313244
v -41.312313 4.833217 75.783562
v -40.384605 4.833217 47.313244
v -11.913358 4.833217 47.313244
v -11.913358 4.833217 75.783562
v -10.985659 4.833217 47.316044
v 17.485592 4.833217 47.316044
v -40.384605 4.833217 46.384605
v 47.812244 4.833217 75.780762
v 47.812244 4.833217 47.310444
v 76.283493 4.833217 47.310444
v 76.283493 4.833217 75.780762
v -69.783562 4.833217 46.383671
v -40.384605 4.833217 75.783562
v 18.413292 4.833217 75.783562
v 46.884544 4.833217 75.783562
v -10.985659 4.833217 75.786354
v 17.485592 4.833217 75.786354
v 17.485592 2.963817 47.316044
v -10.985659 2.963817 47.316044
v -69.783562 2.963817 47.313244
v 46.884544 2.963817 47.313244
v 18.413292 2.963817 47.313244
v -11.913358 2.963817 47.313244
v -40.384605 2.963817 47.313244
v 47.812244 2.963817 -40.883606
v -41.312313 2.963817 47.313244
v 47.812244 2.963817 -12.413292
v 76.283493 2.963817 47.310444
v 76.283493 2.963817 75.780762
v -69.783562 2.963817 -12.416092
v -69.783562 2.963817 -40.886414
v 47.812244 2.963817 47.310444
v 47.812244 2.963817 75.780762
v 18.413292 2.963817 75.783562
v 46.884544 2.963817 75.783562
v -40.384605 2.963817 -12.414227
v -10.985659 2.963817 75.786354
v -11.913358 2.963817 -40.884544
v -40.384605 2.963817 75.783562
v -69.783562 2.963817 46.383671
v 46.884544 2.963817 -40.880806
v 18.413292 2.963817 -40.880806
v 17.485592 2.963817 -40.882671
v -10.985659 2.963817 -40.882671
v -40.384605 2.963817 46.384605
v -41.312313 2.963817 -12.416092
v -11.913358 2.963817 -12.414227
v 46.884544 2.963817 -12.410493
v -41.312313 2.963817 46.383671
v -10.985659 2.963817 -12.412358
v 17.485592 2.963817 46.383671
v -10.985659 2.963817 46.383671
v 18.413292 2.963817 -12.410493
v -11.913358 2.963817 46.384605
v 76.283493 2.963817 -40.883606
v 76.283493 2.963817 -12.413292
v -69.783562 2.963817 75.783562
v -41.312313 2.963817 75.783562
v -11.913358 2.963817 75.783562
v -41.312313 2.963817 -40.886414
v -40.384605 2.963817 -40.884544
v 17.485592 2.963817 75.786354
v 47.812244 2.963817 -11.485592
v 47.812244 2.963817 16.984726
v -41.312313 2.963817 16.983791
v 18.413292 2.963817 17.911493
v 18.413292 2.963817 46.381805
v -41.312313 2.963817 -11.486525
v -11.913358 2.963817 17.914291
v -40.384605 2.963817 17.914291
v 46.884544 2.963817 -11.484658
v 18.413292 2.963817 -11.484658
v 17.485592 2.963817 -11.484658
v -10.985659 2.963817 -11.484658
v -11.913358 2.963817 -11.484658
v -40.384605 2.963817 -11.484658
v 46.884544 2.963817 46.381805
v -69.783562 2.963817 16.983791
v -10.985659 2.963817 16.985659
v -10.985659 2.963817 17.913359
v -40.384605 2.963817 16.985659
v 17.485592 2.963817 17.913359
v -41.312313 2.963817 17.913359
v -69.783562 2.963817 17.913359
v 46.884544 2.963817 16.985659
v 76.283493 2.963817 -11.485592
v 76.283493 2.963817 16.984726
v 76.283493 2.963817 17.912426
v 76.283493 2.963817 46.382740
v 47.812244 2.963817 17.912426
v 47.812244 2.963817 46.382740
v 18.413292 2.963817 16.985659
v -69.783562 2.963817 -11.486525
v 17.485592 2.963817 -12.412358
v -11.913358 2.963817 16.985659
v 17.485592 2.963817 16.985659
v 46.884544 2.963817 17.911493
vn 0.0000 0.0000 1.0000
vn 0.0000 0.0000 -1.0000
vn 0.0000 -1.0000 0.0000
vn 1.0000 0.0000 0.0000
vn -1.0000 0.0000 0.0000
vn 0.0000 1.0000 0.0000
usemtl Material.001
s off
f 1//1 2//1 3//1
f 1//1 3//1 4//1
f 5//2 6//2 7//2
f 5//2 7//2 8//2
f 3//3 5//3 8//3
f 5//3 3//3 2//3
f 9//4 10//4 11//4
f 12//4 11//4 10//4
f 4//4 3//4 7//4
f 8//4 7//4 3//4
f 13//5 14//5 15//5
f 13//5 15//5 16//5
f 17//5 18//5 19//5
f 17//5 19//5 20//5
f 21//5 22//5 23//5
f 21//5 23//5 24//5
f 25//5 26//5 27//5
f 25//5 27//5 28//5
f 29//2 30//2 27//2
f 29//2 27//2 26//2
f 31//2 32//2 23//2
f 31//2 23//2 22//2
f 33//2 34//2 19//2
f 33//2 19//2 18//2
f 35//2 36//2 15//2
f 35//2 15//2 14//2
f 37//5 38//5 39//5
f 37//5 39//5 40//5
f 39//6 38//6 9//6
f 39//6 9//6 11//6
f 29//6 26//6 25//6
f 31//6 22//6 21//6
f 16//6 15//6 34//6
f 33//6 18//6 17//6
f 20//6 19//6 32//6
f 35//6 14//6 13//6
f 24//6 23//6 30//6
f 10//1 9//1 38//1
f 10//1 38//1 37//1
f 28//6 27//6 10//6
f 41//4 30//4 42//4
f 29//4 42//4 30//4
f 12//6 10//6 27//6
f 43//6 44//6 19//6
f 19//6 34//6 43//6
f 45//6 43//6 34//6
f 34//6 15//6 45//6
f 46//6 45//6 15//6
f 15//6 36//6 46//6
f 36//6 6//6 46//6
f 32//6 19//6 44//6
f 47//4 32//4 48//4
f 31//4 48//4 32//4
f 40//6 7//6 37//6
f 49//4 34//4 50//4
f 33//4 50//4 34//4
f 1//6 51//6 6//6
f 52//6 6//6 36//6
f 52//4 36//4 53//4
f 35//4 53//4 36//4
f 34//6 49//6 16//6
f 32//6 47//6 20//6
f 30//6 41//6 24//6
f 10//6 37//6 7//6
f 6//6 52//6 16//6
f 6//6 16//6 49//6
f 6//6 49//6 20//6
f 6//6 20//6 47//6
f 24//6 7//6 47//6
f 41//6 7//6 24//6
f 28//6 7//6 41//6
f 28//6 10//6 7//6
f 6//6 47//6 7//6
f 40//6 12//6 54//6
f 54//6 55//6 40//6
f 44//6 56//6 57//6
f 12//6 27//6 54//6
f 58//6 54//6 27//6
f 43//6 59//6 60//6
f 61//6 62//6 59//6
f 61//6 6//6 62//6
f 54//6 58//6 63//6
f 64//6 57//6 56//6
f 60//6 59//6 65//6
f 62//6 65//6 59//6
f 66//6 67//6 68//6
f 69//6 68//6 67//6
f 46//6 6//6 61//6
f 55//6 7//6 40//6
f 70//6 7//6 55//6
f 59//6 43//6 45//6
f 27//6 30//6 68//6
f 68//6 58//6 27//6
f 44//6 57//6 32//6
f 23//6 32//6 57//6
f 57//6 66//6 23//6
f 30//6 23//6 66//6
f 66//6 68//6 30//6
f 65//6 71//6 72//6
f 73//6 69//6 74//6
f 74//6 75//6 73//6
f 75//6 76//6 73//6
f 63//6 73//6 76//6
f 70//6 63//6 76//6
f 76//6 77//6 70//6
f 78//6 79//6 75//6
f 76//6 75//6 79//6
f 7//6 70//6 77//6
f 77//6 80//6 7//6
f 67//6 64//6 81//6
f 58//6 73//6 63//6
f 65//6 72//6 60//6
f 62//6 6//6 51//6
f 56//6 60//6 72//6
f 82//6 81//6 64//6
f 72//6 82//6 56//6
f 64//6 56//6 82//6
f 81//6 83//6 67//6
f 69//6 67//6 83//6
f 83//6 74//6 69//6
f 84//6 85//6 86//6
f 87//6 86//6 85//6
f 88//6 89//6 90//6
f 91//6 92//6 87//6
f 86//6 87//6 92//6
f 93//6 94//6 95//6
f 96//6 97//6 98//6
f 99//6 96//6 98//6
f 98//6 100//6 95//6
f 88//6 87//6 85//6
f 85//6 101//6 88//6
f 99//6 84//6 86//6
f 98//6 102//6 99//6
f 102//6 103//6 99//6
f 89//6 88//6 101//6
f 7//6 80//6 4//6
f 72//6 71//6 101//6
f 82//6 85//6 81//6
f 84//6 81//6 85//6
f 83//6 103//6 74//6
f 104//6 74//6 103//6
f 105//6 94//6 79//6
f 78//6 105//6 79//6
f 101//6 71//6 89//6
f 95//6 94//6 105//6
f 106//6 4//6 80//6
f 107//6 4//6 106//6
f 104//6 102//6 78//6
f 103//6 102//6 104//6
f 84//6 99//6 103//6
f 71//6 51//6 108//6
f 1//6 108//6 51//6
f 108//6 89//6 71//6
f 102//6 105//6 78//6
f 80//6 79//6 94//6
f 94//6 106//6 80//6
f 109//6 110//6 1//6
f 111//6 112//6 113//6
f 114//6 115//6 116//6
f 97//6 96//6 117//6
f 116//6 117//6 92//6
f 91//6 118//6 113//6
f 113//6 114//6 91//6
f 92//6 91//6 114//6
f 114//6 116//6 92//6
f 100//6 98//6 97//6
f 119//6 120//6 100//6
f 120//6 95//6 100//6
f 111//6 113//6 118//6
f 4//6 121//6 122//6
f 123//6 108//6 1//6
f 95//6 120//6 93//6
f 93//6 121//6 107//6
f 118//6 88//6 90//6
f 92//6 117//6 96//6
f 110//6 111//6 90//6
f 90//6 123//6 110//6
f 1//6 110//6 123//6
f 118//6 90//6 111//6
f 121//6 93//6 120//6
f 4//6 107//6 121//6
f 124//6 113//6 112//6
f 125//6 97//6 117//6
f 126//6 125//6 4//6
f 100//6 126//6 119//6
f 119//6 126//6 4//6
f 127//6 116//6 115//6
f 124//6 1//6 115//6
f 112//6 1//6 124//6
f 109//6 1//6 112//6
f 125//6 128//6 4//6
f 117//6 128//6 125//6
f 1//6 4//6 128//6
f 127//6 1//6 128//6
f 127//6 115//6 1//6
f 122//6 119//6 4//6
f 5//5 2//5 1//5
f 6//5 5//5 1//5
f 25//6 42//6 29//6
f 21//6 48//6 31//6
f 17//6 50//6 33//6
f 129//1 117//1 116//1
f 129//1 116//1 130//1
f 13//6 53//6 35//6
f 41//1 42//1 25//1
f 41//1 25//1 28//1
f 47//1 48//1 21//1
f 47//1 21//1 24//1
f 109//4 131//4 110//4
f 49//1 50//1 17//1
f 49//1 17//1 20//1
f 52//1 53//1 13//1
f 52//1 13//1 16//1
f 11//2 12//2 40//2
f 11//2 40//2 39//2
f 132//1 100//1 97//1
f 132//1 97//1 133//1
f 134//1 114//1 113//1
f 134//1 113//1 135//1
f 63//4 136//4 54//4
f 137//1 111//1 110//1
f 137//1 110//1 131//1
f 63//4 138//4 136//4
f 121//5 139//5 140//5
f 121//5 140//5 122//5
f 61//4 141//4 142//4
f 140//6 139//6 143//6
f 140//6 143//6 144//6
f 145//6 146//6 133//6
f 43//4 60//4 147//4
f 129//6 130//6 148//6
f 56//5 44//5 149//5
f 150//6 134//6 135//6
f 120//1 143//1 139//1
f 120//1 139//1 121//1
f 123//4 151//4 108//4
f 152//1 58//1 68//1
f 152//1 68//1 153//1
f 154//1 66//1 57//1
f 154//1 57//1 155//1
f 88//4 118//4 156//4
f 141//2 61//2 59//2
f 141//2 59//2 157//2
f 149//5 158//5 56//5
f 67//5 66//5 154//5
f 159//5 73//5 152//5
f 147//2 60//2 56//2
f 147//2 56//2 158//2
f 160//2 151//2 123//2
f 160//2 123//2 90//2
f 161//4 155//4 64//4
f 57//4 64//4 155//4
f 162//2 163//2 92//2
f 162//2 92//2 96//2
f 164//4 153//4 68//4
f 156//2 118//2 91//2
f 156//2 91//2 165//2
f 55//5 166//5 167//5
f 55//5 167//5 70//5
f 140//2 144//2 119//2
f 140//2 119//2 122//2
f 167//6 166//6 136//6
f 167//6 136//6 138//6
f 145//4 133//4 125//4
f 142//6 141//6 157//6
f 148//4 130//4 116//4
f 124//4 150//4 113//4
f 109//4 168//4 131//4
f 147//6 158//6 149//6
f 137//5 169//5 112//5
f 161//6 154//6 155//6
f 134//5 170//5 115//5
f 153//6 164//6 152//6
f 132//5 146//5 126//5
f 132//5 126//5 100//5
f 159//6 152//6 164//6
f 132//6 133//6 146//6
f 54//1 136//1 166//1
f 54//1 166//1 55//1
f 142//4 46//4 61//4
f 150//6 170//6 134//6
f 59//5 45//5 157//5
f 171//5 157//5 45//5
f 131//6 168//6 169//6
f 131//6 169//6 137//6
f 147//4 172//4 43//4
f 170//2 150//2 124//2
f 170//2 124//2 115//2
f 169//2 168//2 109//2
f 169//2 109//2 112//2
f 149//1 44//1 43//1
f 149//1 43//1 172//1
f 146//2 145//2 125//2
f 146//2 125//2 126//2
f 157//6 171//6 142//6
f 127//4 148//4 116//4
f 147//6 149//6 172//6
f 129//5 173//5 128//5
f 117//5 129//5 128//5
f 46//1 142//1 171//1
f 46//1 171//1 45//1
f 148//6 173//6 129//6
f 167//2 138//2 63//2
f 167//2 63//2 70//2
f 148//2 127//2 128//2
f 148//2 128//2 173//2
f 76//4 79//4 174//4
f 175//4 174//4 79//4
f 89//5 160//5 90//5
f 71//5 65//5 176//5
f 177//4 102//4 178//4
f 179//5 176//5 65//5
f 180//1 87//1 88//1
f 180//1 88//1 181//1
f 182//1 75//1 74//1
f 182//1 74//1 183//1
f 184//1 83//1 81//1
f 184//1 81//1 185//1
f 186//1 82//1 72//1
f 186//1 72//1 187//1
f 178//2 98//2 95//2
f 178//2 95//2 188//2
f 189//2 51//2 71//2
f 189//2 71//2 176//2
f 156//4 181//4 88//4
f 74//4 104//4 183//4
f 180//5 165//5 91//5
f 180//5 91//5 87//5
f 190//4 185//4 81//4
f 86//4 92//4 191//4
f 163//4 191//4 92//4
f 192//4 187//4 72//4
f 193//5 162//5 99//5
f 96//5 99//5 162//5
f 194//1 89//1 108//1
f 194//1 108//1 195//1
f 193//1 99//1 86//1
f 193//1 86//1 191//1
f 182//5 196//5 78//5
f 182//5 78//5 75//5
f 98//4 178//4 102//4
f 77//5 197//5 198//5
f 77//5 198//5 80//5
f 198//6 197//6 174//6
f 198//6 174//6 175//6
f 106//5 199//5 200//5
f 106//5 200//5 107//5
f 176//6 179//6 189//6
f 201//6 202//6 199//6
f 200//6 199//6 202//6
f 184//6 185//6 190//6
f 194//6 195//6 160//6
f 195//6 151//6 160//6
f 186//6 187//6 192//6
f 177//6 178//6 188//6
f 183//6 203//6 182//6
f 196//6 182//6 203//6
f 76//1 174//1 197//1
f 76//1 197//1 77//1
f 181//6 156//6 180//6
f 165//6 180//6 156//6
f 62//4 51//4 204//4
f 189//4 204//4 51//4
f 163//6 162//6 191//6
f 193//6 191//6 162//6
f 189//6 179//6 204//6
f 62//1 204//1 179//1
f 62//1 179//1 65//1
f 94//1 201//1 199//1
f 94//1 199//1 106//1
f 203//4 183//4 104//4
f 154//5 205//5 67//5
f 84//4 190//4 81//4
f 68//4 69//4 164//4
f 101//4 192//4 72//4
f 186//5 206//5 85//5
f 82//5 186//5 85//5
f 161//6 205//6 154//6
f 184//5 207//5 103//5
f 83//5 184//5 103//5
f 205//2 161//2 64//2
f 205//2 64//2 67//2
f 190//6 207//6 184//6
f 58//5 152//5 73//5
f 192//6 206//6 186//6
f 203//2 104//2 78//2
f 203//2 78//2 196//2
f 164//2 69//2 73//2
f 164//2 73//2 159//2
f 190//2 84//2 103//2
f 190//2 103//2 207//2
f 198//2 175//2 79//2
f 198//2 79//2 80//2
f 192//2 101//2 85//2
f 192//2 85//2 206//2
f 94//4 93//4 202//4
f 95//5 105//5 188//5
f 208//5 188//5 105//5
f 94//4 202//4 201//4
f 188//6 208//6 177//6
f 151//4 195//4 108//4
f 102//1 177//1 208//1
f 102//1 208//1 105//1
f 200//2 202//2 93//2
f 200//2 93//2 107//2
f 160//5 89//5 194//5
f 119//4 144//4 143//4
f 119//4 143//4 120//4
f 97//4 125//4 133//4
f 150//4 135//4 113//4
f 112//5 111//5 137//5
f 115//5 114//5 134//5
